<svg width="301.47499999999997px" height="244.4px" xmlns="http://www.w3.org/2000/svg" viewBox="99.26250000000002 -47.2 301.47499999999997 244.4" style="background: rgba(0, 0, 0, 0);" preserveAspectRatio="xMidYMid"><defs><filter id="editing-raise" x="-100%" y="-100%" width="300%" height="300%"><feFlood flood-color="#ffffff" result="flood-surface"></feFlood><feFlood flood-color="#bbbbbb" result="flood-extrude"></feFlood><feMorphology operator="erode" in="SourceAlpha" radius="1" result="erode"></feMorphology><feConvolveMatrix in="erode" result="shadow" order="11,8" divisor="1" kernelMatrix="0 0 0 1 1 1 1 1 0 0 0 0 0 1 0 0 0 0 0 1 0 0 0 0 1 0 0 0 0 0 1 0 0 0 0 1 0 0 0 0 0 1 0 0 0 0 1 0 0 0 0 0 1 0 0 0 0 0 1 0 0 0 1 0 0 0 0 0 0 1 1 0 1 1 0 0 0 0 0 0 0 0 1 0 0 0 0 0"></feConvolveMatrix><feOffset dx="0" dy="4" in="shadow" result="offset"></feOffset><feGaussianBlur in="offset" stdDeviation="0.2" result="blur"></feGaussianBlur><feComposite operator="in" in="flood-extrude" in2="blur" result="extrude"></feComposite><feMorphology operator="erode" in="SourceAlpha" radius="1" result="erode2"></feMorphology><feConvolveMatrix in="erode2" result="out" order="4,4" divisor="1" kernelMatrix="0 1 1 0 1 0 0 1 1 0 0 1 0 1 1 0 "></feConvolveMatrix><feComposite operator="in" in="flood-surface" in2="out" result="text"></feComposite><feMerge><feMergeNode in="extrude"></feMergeNode><feMergeNode in="text"></feMergeNode></feMerge></filter></defs><g filter="url(#editing-raise)"><g transform="translate(145.57498359680176, 124.0099983215332)"><path d="M12.08 0L12.08-98.02L35.18-98.02L35.18-89.12L23.55-89.12L23.55-8.91L35.18-8.91L35.18 0L12.08 0ZM62.07-51.27L79.49-97.97L91.07-97.97L72.81-49.60L92.35 0L80.32 0L62.18-46.87L62.18 0L50.54 0L50.54-97.97L62.07-97.97L62.07-51.27ZM128.70-17.42L142.00-97.97L156.42-97.97L156.42 0L146.17 0L146.17-39.30L147.12-75.93L133.82-0.17L123.41-0.17L109.55-75.93L110.49-39.30L110.49 0L100.31 0L100.31-97.97L114.67-97.97L128.70-17.42ZM173.67-89.12L173.67-98.02L196.77-98.02L196.77 0L173.67 0L173.67-8.91L185.36-8.91L185.36-89.12L173.67-89.12Z"></path></g></g><style>text {
  font-size: 64px;
  font-family: Arial Black;
  dominant-baseline: central;
  text-anchor: middle;
}</style></svg>